<svg width="200" height="91" viewBox="0 0 200 91" fill="none" xmlns="http://www.w3.org/2000/svg">
<path d="M63.1683 87.7344H65.1922L66.1552 79.9587L63.168 79.9589L63.1683 87.7344Z" fill="#FFB8B8"/>
<path d="M62.6523 87.0764L66.6382 87.0762H66.6384C67.312 87.0762 67.9581 87.3428 68.4344 87.8173C68.9108 88.2917 69.1784 88.9352 69.1785 89.6062V89.6884L62.6525 89.6887L62.6523 87.0764Z" fill="#2F2E41"/>
<path d="M76.5384 87.7344H78.5623L79.5253 79.9587L76.5381 79.9589L76.5384 87.7344Z" fill="#FFB8B8"/>
<path d="M76.0225 87.0764L80.0083 87.0762H80.0085C80.6821 87.0762 81.3282 87.3428 81.8046 87.8173C82.2809 88.2917 82.5485 88.9352 82.5486 89.6062V89.6884L76.0226 89.6887L76.0225 87.0764Z" fill="#2F2E41"/>
<path d="M199.85 89.6H0.15C0.0671573 89.6 0 89.6672 0 89.75C0 89.8328 0.0671464 89.9 0.149989 89.9H199.85C199.933 89.9 200 89.8328 200 89.75C200 89.6672 199.933 89.6 199.85 89.6Z" fill="#2F2E41"/>
<path d="M61.4736 86.0484H66.7166L70.0676 56.8226L76.2288 86.0484H79.7664V51.1976L62.9469 46.1839L61.4736 86.0484Z" fill="#2F2E41"/>
<path d="M70.414 20.4693C72.9391 20.4693 74.9861 18.4304 74.9861 15.9152C74.9861 13.4001 72.9391 11.3612 70.414 11.3612C67.8888 11.3612 65.8418 13.4001 65.8418 15.9152C65.8418 18.4304 67.8888 20.4693 70.414 20.4693Z" fill="#FFB8B8"/>
<path d="M63.3152 46.9177C68.2211 50.7392 73.6363 52.6655 79.7663 51.9313C77.1774 42.8772 76.4095 33.8916 78.9069 25.0289L73.7506 22.7055L67.9545 22.3387L63.7419 23.5728C63.1493 23.7466 62.6305 24.1096 62.2654 24.6059C61.9003 25.1022 61.7091 25.7043 61.7213 26.3195C61.87 33.8778 61.3655 40.9512 63.3152 46.9177Z" fill="#308575"/>
<path d="M66.0374 13.625C66.4772 12.7984 67.0361 11.1509 67.9239 10.8454C68.417 10.6825 68.9265 10.5744 69.4434 10.523L70.9524 11.1011L70.1311 10.4648C70.291 10.4553 70.4509 10.4476 70.6106 10.4415L71.6288 10.8316L71.1079 10.4281C72.0571 10.4183 73.0369 10.5167 73.7724 11.0922C74.3994 11.5829 75.0207 13.4417 75.1211 14.2295C75.2285 14.9833 75.1909 15.7505 75.0104 16.4902L74.7525 16.7344C74.6623 16.5284 74.5945 16.3134 74.5502 16.093C74.4578 15.6813 74.2802 15.2932 74.0289 14.9536C73.7776 14.614 73.4579 14.3302 73.0904 14.1204L73.0764 14.1125C72.6439 13.8701 72.1192 13.8813 71.6232 13.8991L69.2679 13.9835C68.7012 14.0038 68.091 14.0395 67.6492 14.3936C67.3508 14.6327 67.172 14.9857 67.002 15.3274C66.7825 15.7687 66.3535 17.4333 66.3535 17.4333C66.3535 17.4333 66.1108 17.1191 65.9944 17.353C65.8079 16.7428 65.6945 16.1128 65.6565 15.4761C65.6194 14.8365 65.7507 14.1984 66.0374 13.625Z" fill="#2F2E41"/>
<path d="M161.596 43.0334H108.813C107.911 43.0324 107.045 42.6748 106.407 42.0392C105.769 41.4036 105.41 40.5418 105.409 39.6429V3.39052C105.41 2.49161 105.769 1.6298 106.407 0.994176C107.045 0.35855 107.911 0.00101263 108.813 0H161.596C162.499 0.00101263 163.364 0.35855 164.002 0.994176C164.64 1.6298 164.999 2.49161 165 3.39052V39.6429C164.999 40.5418 164.64 41.4036 164.002 42.0392C163.364 42.6748 162.499 43.0324 161.596 43.0334ZM108.813 0.299256C107.99 0.300185 107.202 0.626166 106.62 1.20569C106.038 1.78521 105.711 2.57095 105.71 3.39052V39.6429C105.711 40.4624 106.038 41.2482 106.62 41.8277C107.202 42.4072 107.99 42.7332 108.813 42.7341H161.596C162.419 42.7332 163.208 42.4072 163.79 41.8277C164.372 41.2482 164.699 40.4624 164.7 39.6429V3.39052C164.699 2.57095 164.372 1.78521 163.79 1.20569C163.208 0.626166 162.419 0.300184 161.596 0.299256H108.813Z" fill="#F0F0F0"/>
<path d="M99.8506 46.0768V9.82448C99.8516 8.96523 100.195 8.14146 100.805 7.53387C101.415 6.92629 102.242 6.58453 103.104 6.58356H155.887C156.75 6.58453 157.577 6.92629 158.187 7.53387C158.797 8.14146 159.14 8.96523 159.141 9.82448V46.0768C159.14 46.9361 158.797 47.7598 158.187 48.3674C157.577 48.975 156.75 49.3168 155.887 49.3177H103.104C102.242 49.3168 101.415 48.975 100.805 48.3674C100.195 47.7598 99.8516 46.9361 99.8506 46.0768Z" fill="#2F2E41"/>
<path d="M101.927 46.1407V9.76074C101.927 9.49587 102.033 9.24193 102.221 9.05464C102.409 8.86734 102.664 8.76199 102.93 8.76169H156.062C156.328 8.76199 156.583 8.86734 156.771 9.05464C156.959 9.24193 157.065 9.49587 157.065 9.76074V46.1407C157.065 46.4056 156.959 46.6595 156.771 46.8468C156.583 47.0341 156.328 47.1394 156.062 47.1397H102.93C102.664 47.1394 102.409 47.0341 102.221 46.8468C102.033 46.6595 101.927 46.4056 101.927 46.1407Z" fill="white"/>
<path d="M123.335 56.8251C124.152 56.8251 124.814 56.1657 124.814 55.3523C124.814 54.5389 124.152 53.8795 123.335 53.8795C122.518 53.8795 121.856 54.5389 121.856 55.3523C121.856 56.1657 122.518 56.8251 123.335 56.8251Z" fill="#308575"/>
<path d="M129.496 56.8251C130.313 56.8251 130.975 56.1657 130.975 55.3523C130.975 54.5389 130.313 53.8795 129.496 53.8795C128.68 53.8795 128.018 54.5389 128.018 55.3523C128.018 56.1657 128.68 56.8251 129.496 56.8251Z" fill="#308575"/>
<path d="M135.657 56.8251C136.474 56.8251 137.136 56.1657 137.136 55.3523C137.136 54.5389 136.474 53.8795 135.657 53.8795C134.841 53.8795 134.179 54.5389 134.179 55.3523C134.179 56.1657 134.841 56.8251 135.657 56.8251Z" fill="#308575"/>
<path d="M129.496 38.6433C127.373 38.6433 125.297 38.0162 123.532 36.8413C121.766 35.6664 120.39 33.9964 119.578 32.0426C118.765 30.0888 118.553 27.9389 118.967 25.8648C119.381 23.7906 120.404 21.8854 121.905 20.39C123.406 18.8946 125.319 17.8763 127.401 17.4637C129.484 17.0511 131.642 17.2629 133.604 18.0722C135.565 18.8815 137.242 20.2519 138.422 22.0103C139.601 23.7687 140.231 25.836 140.231 27.9507V27.9508C140.228 30.7856 139.096 33.5034 137.083 35.508C135.071 37.5125 132.342 38.6401 129.496 38.6433Z" fill="#308575"/>
<path d="M133.732 26.896H130.555V23.7317C130.555 23.4523 130.443 23.1845 130.244 22.987C130.046 22.7896 129.777 22.6787 129.496 22.6787C129.216 22.6787 128.946 22.7896 128.748 22.987C128.549 23.1845 128.438 23.4523 128.437 23.7317V26.896H125.26C124.98 26.8965 124.711 27.0078 124.513 27.2055C124.314 27.4033 124.203 27.6713 124.203 27.9507C124.203 28.2302 124.314 28.4982 124.513 28.6959C124.711 28.8937 124.98 29.005 125.26 29.0055H128.437V32.1697C128.438 32.4492 128.549 32.717 128.748 32.9144C128.946 33.1118 129.216 33.2227 129.496 33.2227C129.777 33.2227 130.046 33.1118 130.244 32.9144C130.443 32.717 130.555 32.4492 130.555 32.1697V29.0055H133.732C133.871 29.0058 134.009 28.9788 134.138 28.926C134.266 28.8733 134.383 28.7958 134.482 28.6979C134.58 28.6001 134.659 28.4839 134.712 28.3559C134.765 28.228 134.793 28.0908 134.793 27.9522C134.793 27.8136 134.766 27.6763 134.713 27.5482C134.66 27.4201 134.582 27.3037 134.484 27.2056C134.386 27.1075 134.269 27.0297 134.14 26.9765C134.012 26.9234 133.874 26.896 133.735 26.896H133.732Z" fill="white"/>
<path d="M50.5736 69.3058C50.0537 65.92 49.0395 62.6307 47.564 59.5456L47.3489 59.0963L45.7514 60.8856L46.9351 58.2203L46.8577 58.0656C45.8131 55.9768 44.6554 53.9477 43.3899 51.9876L43.1553 51.6245L42.8422 51.9752L43.0614 51.4815L42.9516 51.3151C41.3843 48.9403 40.1801 47.4383 40.1682 47.4232L39.8277 47L39.6087 47.5047C39.5685 47.5971 35.5886 56.8613 35.0614 66.0159L35.0531 66.1585L37.7316 69.4293L35 67.6969L35.0047 68.3257C35.013 69.4016 35.0855 70.476 35.2218 71.5431C35.3421 72.4611 35.4837 73.3572 35.6466 74.2316C35.9048 74.2397 36.1559 74.3188 36.3729 74.4605C36.1842 73.4834 36.0215 72.4792 35.8847 71.4479C35.7792 70.6246 35.7127 69.7881 35.6863 68.9541L40.9699 72.3053L35.7376 65.9161C36.214 58.1763 39.1708 50.3783 40.001 48.3201C40.4465 48.9038 41.2869 50.0369 42.2923 51.5506L40.4646 55.6666L43.0703 52.748C44.2001 54.5244 45.2407 56.3572 46.1882 58.2392L43.3738 64.5771L47.1791 60.3146C48.5082 63.2018 49.4283 66.2638 49.9121 69.4103C50.5781 74.4924 50.4481 79.3744 49.5459 83.1574C48.6818 86.7812 47.1588 89.0085 45.3674 89.2688C44.9987 89.3202 44.6236 89.2977 44.2635 89.2025C43.9748 89.4097 43.6273 89.5169 43.2732 89.5078H43.1755C43.7312 89.8194 44.3542 89.9884 44.9896 90C45.1466 90 45.3034 89.9886 45.4588 89.966C47.565 89.6603 49.247 87.303 50.1947 83.3289C51.1171 79.4604 51.2522 74.4832 50.5736 69.3058Z" fill="#2F2E41"/>
<path d="M45.2497 90C42.3795 90 38.2413 88.4622 34.1368 85.6631C33.5326 85.2477 32.9557 84.796 32.4095 84.3105L31.9498 83.9016L33.6879 83.4141L31.3735 83.3315L31.2758 83.2318C26.9375 78.8067 24.2379 72.5561 24.211 72.4938L24 72L24.5485 72.0242C24.6032 72.0265 25.9073 72.0865 27.8673 72.3573L27.9895 72.3742V72.3732L28.4193 72.4368C30.0198 72.6737 31.6054 72.9983 33.1685 73.4089L33.3354 73.4529L33.8569 74.704L33.7778 73.5819L34.2562 73.7164C36.5239 74.3539 38.6777 75.3265 40.6426 76.6001C46.8846 80.8572 50.3385 86.1778 48.5127 88.7171C47.8886 89.5851 46.7398 89.9997 45.2497 90ZM33.3524 84.2144C33.7337 84.5289 34.1305 84.8282 34.5375 85.1076C40.2544 89.0067 46.3929 90.4812 47.9417 88.328C49.4902 86.1744 45.9675 81.0603 40.2497 77.1608C38.4857 76.0179 36.5638 75.125 34.5417 74.5088L34.8509 78.8925L32.82 74.0207C31.4825 73.675 30.1142 73.3906 28.7444 73.1736L28.9688 76.3552L27.5711 73.0022C26.4881 72.8574 25.6151 72.7788 25.0841 72.7387C25.8081 74.2871 28.2003 79.0685 31.6826 82.6634L38.0698 82.8911L33.3524 84.2144Z" fill="#2F2E41"/>
<path d="M66.1915 49.9031C66.1904 49.6749 66.1391 49.4497 66.0412 49.2434C65.9433 49.0371 65.8012 48.8546 65.6249 48.7089C65.4485 48.5632 65.2423 48.4578 65.0206 48.4001C64.7989 48.3424 64.5672 48.3338 64.3419 48.3749L61.598 43.5477L60.4658 45.859L63.0881 50.3048C63.1826 50.6774 63.4109 51.0024 63.7299 51.2185C64.0489 51.4345 64.4364 51.5265 64.8189 51.4769C65.2015 51.4274 65.5525 51.2399 65.8054 50.9498C66.0584 50.6597 66.1958 50.2873 66.1915 49.9031V49.9031Z" fill="#FFB8B8"/>
<path d="M78.4605 55.2695C78.3522 55.0684 78.2895 54.8461 78.2768 54.6182C78.2641 54.3904 78.3017 54.1625 78.387 53.9507C78.4723 53.7389 78.6031 53.5483 78.7704 53.3923C78.9376 53.2363 79.1371 53.1187 79.3549 53.0478L79.4563 47.5015L81.843 49.132L81.3807 54.1489C81.476 54.5213 81.4309 54.9154 81.2539 55.2568C81.0769 55.5982 80.7803 55.863 80.4203 56.0012C80.0604 56.1393 79.6621 56.1411 79.3009 56.0062C78.9397 55.8714 78.6407 55.6093 78.4605 55.2695H78.4605Z" fill="#FFB8B8"/>
<path d="M61.8424 49.2409L63.8067 47.4067L62.7987 37.5017L63.965 23.5002C61.4314 24.2933 58.711 26.4238 58.2629 29.0311L56.6602 38.3577L61.8424 49.2409Z" fill="#308575"/>
<path opacity="0.2" d="M62.9828 32.1824L61.3867 38.5412L63.8067 47.5644L62.2461 39.0303L62.9828 32.1824Z" fill="black"/>
<path d="M78.7844 52.6648L81.9764 53.0317L81.229 29.4227C81.1956 28.3678 80.8579 27.3447 80.2563 26.4759C79.6547 25.6071 78.8146 24.9292 77.8365 24.5232L76.6973 24.0504L77.0042 35.1171L78.7844 52.6648Z" fill="#308575"/>
<path opacity="0.2" d="M77.5895 35.4789L78.8215 49.1043L76.7354 35.5739L77.5895 35.4789Z" fill="black"/>
</svg>
